<?xml version="1.0" standalone="no"?>
<!DOCTYPE svg PUBLIC "-//W3C//DTD SVG 20010904//EN"
 "http://www.w3.org/TR/2001/REC-SVG-20010904/DTD/svg10.dtd">
<svg version="1.0" xmlns="http://www.w3.org/2000/svg"
 width="910.000000pt" height="910.000000pt" viewBox="0 0 910.000000 910.000000"
 preserveAspectRatio="xMidYMid meet">
<metadata>
Created by potrace 1.14, written by Peter Selinger 2001-2017
</metadata>
<g transform="translate(0.000000,910.000000) scale(0.100000,-0.100000)"
fill="#000000" stroke="none">
<path d="M970 4565 l0 -2255 520 0 520 0 0 760 0 760 465 0 465 0 0 465 0 465
-465 0 -465 0 0 1030 0 1030 -520 0 -520 0 0 -2255z"/>
<path d="M2360 6811 c17 -10 1205 -570 1320 -622 l74 -34 -471 -5 -472 -5 462
-219 c254 -121 598 -284 763 -363 166 -79 304 -143 308 -143 4 0 4 6 0 13 -6
10 -4 10 7 0 7 -7 34 -13 60 -13 l46 0 7 -52 c3 -29 6 -723 6 -1541 l0 -1488
1033 3 c1008 4 1035 4 1152 26 447 81 795 253 1068 529 120 122 195 224 266
367 52 104 116 283 105 295 -1 2 -32 4 -68 5 -54 2 -63 0 -59 -13 4 -13 3 -14
-5 -2 -12 17 -188 26 -197 11 -3 -5 7 -7 22 -4 15 3 25 3 22 -1 -13 -12 -50
-13 -55 -1 -3 7 -18 13 -35 14 -20 0 -27 -3 -23 -11 5 -8 3 -8 -7 0 -7 7 -20
13 -28 13 -14 0 -14 -1 -1 -10 12 -8 11 -10 -5 -7 -11 1 -25 6 -32 10 -7 4
-13 0 -16 -10 -4 -17 -5 -17 -6 0 0 9 -6 17 -12 17 -5 0 -8 -4 -4 -9 3 -6 -3
-9 -14 -8 -11 0 -18 4 -15 8 5 9 -104 5 -113 -4 -9 -10 -35 -8 -29 1 7 12 -75
9 -93 -2 -10 -6 -12 -5 -7 2 4 8 -8 10 -39 9 -32 -1 -45 -6 -46 -17 0 -10 -3
-8 -8 5 -7 17 -11 14 -31 -25 -158 -313 -547 -511 -959 -487 -106 6 -290 46
-317 68 -12 10 -14 112 -14 613 0 330 3 752 7 936 l6 335 96 -3 c499 -18 989
228 1166 586 59 119 79 203 79 327 0 134 -17 207 -79 330 -149 296 -481 507
-900 570 -86 13 -362 15 -2015 15 -1083 -1 -1908 -4 -1900 -9z m3902 -528
c154 -53 277 -167 309 -286 17 -62 6 -173 -22 -232 -53 -113 -203 -218 -359
-251 -82 -17 -262 -16 -280 2 -7 7 -9 143 -8 400 l3 389 30 7 c17 4 77 6 135
4 85 -3 122 -9 192 -33z m-1802 -454 c0 -5 -6 -6 -13 -3 -8 3 -14 11 -14 19 0
11 4 12 14 4 7 -6 13 -15 13 -20z m3465 -2287 c-3 -3 -11 0 -18 7 -9 10 -8 11
6 5 10 -3 15 -9 12 -12z"/>
<path d="M2988 5322 l-38 -3 0 -78 c0 -43 -3 -166 -7 -274 l-6 -197 566 0 567
0 0 158 0 157 -246 114 c-136 63 -261 116 -278 118 -55 7 -98 9 -101 3 -2 -3
-31 -3 -65 0 -33 3 -63 4 -66 1 -2 -3 -26 -3 -52 -2 -26 2 -60 5 -77 6 -16 1
-46 -2 -64 -6 -19 -4 -39 -5 -45 -2 -12 8 -38 9 -88 5z"/>
<path d="M2955 3389 c-3 -4 -8 -242 -12 -528 l-6 -521 566 0 567 0 0 529 0
528 -92 -2 c-51 -1 -97 -4 -103 -6 -5 -1 -20 1 -33 5 -14 4 -28 3 -36 -3 -7
-6 -16 -8 -20 -4 -11 12 -48 14 -61 3 -6 -5 -15 -7 -19 -3 -11 11 -100 11
-113 0 -7 -5 -13 -6 -13 -1 0 8 -23 8 -105 3 -5 0 -19 2 -30 4 -11 2 -28 0
-39 -5 -13 -7 -16 -7 -12 1 4 6 0 11 -9 11 -9 0 -13 -5 -9 -11 4 -8 0 -8 -15
0 -19 11 -153 7 -171 -4 -5 -3 -11 1 -13 7 -4 10 -6 10 -6 0 -1 -8 -6 -10 -13
-5 -17 11 -197 13 -203 2z"/>
</g>
</svg>
